<svg width="800" height="500" viewBox="0 0 800 500" fill="none" xmlns="http://www.w3.org/2000/svg">
  <!-- Fun gradient background -->
  <defs>
    <linearGradient id="bgGradient" x1="0%" y1="0%" x2="100%" y2="100%">
      <stop offset="0%" style="stop-color:#fef3c7;stop-opacity:1" />
      <stop offset="25%" style="stop-color:#fde68a;stop-opacity:1" />
      <stop offset="50%" style="stop-color:#fbbf24;stop-opacity:1" />
      <stop offset="75%" style="stop-color:#f59e0b;stop-opacity:1" />
      <stop offset="100%" style="stop-color:#d97706;stop-opacity:1" />
    </linearGradient>
    <linearGradient id="partyGradient" x1="0%" y1="0%" x2="100%" y2="100%">
      <stop offset="0%" style="stop-color:#10b981;stop-opacity:1" />
      <stop offset="100%" style="stop-color:#059669;stop-opacity:1" />
    </linearGradient>
    <radialGradient id="spotlight" cx="50%" cy="30%" r="60%">
      <stop offset="0%" style="stop-color:#ffffff;stop-opacity:0.3" />
      <stop offset="100%" style="stop-color:#ffffff;stop-opacity:0" />
    </radialGradient>
  </defs>
  
  <!-- Background -->
  <rect width="800" height="500" fill="url(#bgGradient)"/>
  <rect width="800" height="500" fill="url(#spotlight)"/>
  
  <!-- Party decorations -->
  <circle cx="100" cy="80" r="15" fill="#ef4444" opacity="0.8"/>
  <circle cx="700" cy="120" r="20" fill="#3b82f6" opacity="0.7"/>
  <circle cx="50" cy="200" r="12" fill="#8b5cf6" opacity="0.6"/>
  <circle cx="750" cy="300" r="18" fill="#f59e0b" opacity="0.8"/>
  <circle cx="80" cy="400" r="14" fill="#ec4899" opacity="0.7"/>
  <circle cx="720" cy="450" r="16" fill="#06b6d4" opacity="0.6"/>
  
  <!-- Confetti -->
  <rect x="120" y="60" width="4" height="12" rx="2" fill="#10b981" transform="rotate(45 122 66)"/>
  <rect x="650" y="100" width="4" height="12" rx="2" fill="#ef4444" transform="rotate(-30 652 106)"/>
  <rect x="200" y="40" width="4" height="12" rx="2" fill="#3b82f6" transform="rotate(60 202 46)"/>
  <rect x="600" y="80" width="4" height="12" rx="2" fill="#f59e0b" transform="rotate(-45 602 86)"/>
  
  <!-- People silhouettes -->
  <!-- Person 1 (left side) -->
  <ellipse cx="120" cy="350" rx="25" ry="35" fill="#1f2937" opacity="0.8"/>
  <circle cx="120" cy="300" r="15" fill="#1f2937" opacity="0.8"/>
  <rect x="110" y="385" width="20" height="30" rx="10" fill="#1f2937" opacity="0.8"/>
  <rect x="100" y="365" width="15" height="25" rx="7" fill="#1f2937" opacity="0.8"/>
  <rect x="125" y="365" width="15" height="25" rx="7" fill="#1f2937" opacity="0.8"/>
  
  <!-- Person 2 (right side) -->
  <ellipse cx="680" cy="380" rx="30" ry="40" fill="#1f2937" opacity="0.8"/>
  <circle cx="680" cy="325" r="18" fill="#1f2937" opacity="0.8"/>
  <rect x="665" y="420" width="30" height="35" rx="15" fill="#1f2937" opacity="0.8"/>
  <rect x="650" y="395" width="20" height="30" rx="10" fill="#1f2937" opacity="0.8"/>
  <rect x="690" y="395" width="20" height="30" rx="10" fill="#1f2937" opacity="0.8"/>
  
  <!-- Person 3 (center back) -->
  <ellipse cx="400" cy="420" rx="20" ry="30" fill="#1f2937" opacity="0.6"/>
  <circle cx="400" cy="385" r="12" fill="#1f2937" opacity="0.6"/>
  <rect x="390" y="450" width="20" height="25" rx="10" fill="#1f2937" opacity="0.6"/>
  <rect x="380" y="435" width="12" height="20" rx="6" fill="#1f2937" opacity="0.6"/>
  <rect x="408" y="435" width="12" height="20" rx="6" fill="#1f2937" opacity="0.6"/>
  
  <!-- Phone mockup (more prominent) -->
  <rect x="50" y="150" width="140" height="220" rx="25" fill="#1f2937" stroke="#374151" stroke-width="3"/>
  <rect x="60" y="160" width="120" height="200" rx="15" fill="#ffffff"/>
  
  <!-- Phone screen content -->
  <rect x="70" y="170" width="100" height="25" rx="6" fill="url(#partyGradient)"/>
  <rect x="70" y="210" width="80" height="10" rx="5" fill="#e5e7eb"/>
  <rect x="70" y="230" width="70" height="10" rx="5" fill="#e5e7eb"/>
  
  <!-- Photo grid on phone -->
  <rect x="80" y="250" width="25" height="25" rx="6" fill="#3b82f6"/>
  <rect x="110" y="250" width="25" height="25" rx="6" fill="#ef4444"/>
  <rect x="140" y="250" width="25" height="25" rx="6" fill="#f59e0b"/>
  <rect x="80" y="280" width="25" height="25" rx="6" fill="#8b5cf6"/>
  <rect x="110" y="280" width="25" height="25" rx="6" fill="#06b6d4"/>
  <rect x="140" y="280" width="25" height="25" rx="6" fill="#84cc16"/>
  <rect x="80" y="310" width="25" height="25" rx="6" fill="#ec4899"/>
  <rect x="110" y="310" width="25" height="25" rx="6" fill="#10b981"/>
  <rect x="140" y="310" width="25" height="25" rx="6" fill="#f97316"/>
  
  <!-- Large projector screen -->
  <rect x="350" y="80" width="350" height="200" rx="15" fill="#1f2937" stroke="#374151" stroke-width="4"/>
  <rect x="365" y="95" width="320" height="170" rx="8" fill="#000000"/>
  
  <!-- Projected photos (larger and more dynamic) -->
  <rect x="380" y="110" width="50" height="50" rx="8" fill="#3b82f6" opacity="0.9"/>
  <rect x="440" y="110" width="50" height="50" rx="8" fill="#ef4444" opacity="0.9"/>
  <rect x="500" y="110" width="50" height="50" rx="8" fill="#f59e0b" opacity="0.9"/>
  <rect x="560" y="110" width="50" height="50" rx="8" fill="#8b5cf6" opacity="0.9"/>
  <rect x="620" y="110" width="50" height="50" rx="8" fill="#06b6d4" opacity="0.9"/>
  <rect x="380" y="170" width="50" height="50" rx="8" fill="#84cc16" opacity="0.9"/>
  <rect x="440" y="170" width="50" height="50" rx="8" fill="#f97316" opacity="0.9"/>
  <rect x="500" y="170" width="50" height="50" rx="8" fill="#ec4899" opacity="0.9"/>
  <rect x="560" y="170" width="50" height="50" rx="8" fill="#10b981" opacity="0.9"/>
  <rect x="620" y="170" width="50" height="50" rx="8" fill="#fbbf24" opacity="0.9"/>
  
  <!-- Projector (more prominent) -->
  <rect x="500" y="300" width="80" height="50" rx="8" fill="#6b7280"/>
  <rect x="515" y="285" width="50" height="15" rx="3" fill="#9ca3af"/>
  <rect x="520" y="280" width="40" height="8" rx="2" fill="#d1d5db"/>
  
  <!-- Connection lines (more dynamic) -->
  <path d="M190 260 Q300 200 350 180" stroke="#10b981" stroke-width="4" fill="none" stroke-dasharray="8,4" opacity="0.8"/>
  <path d="M190 280 Q320 220 380 200" stroke="#059669" stroke-width="3" fill="none" stroke-dasharray="6,3" opacity="0.6"/>
  
  <!-- AI filter icon (larger and more prominent) -->
  <circle cx="250" cy="200" r="25" fill="#10b981" opacity="0.3"/>
  <circle cx="250" cy="200" r="20" fill="#10b981" opacity="0.5"/>
  <path d="M240 190 L250 200 L260 190" stroke="#ffffff" stroke-width="3" fill="none"/>
  <path d="M240 210 L250 200 L260 210" stroke="#ffffff" stroke-width="3" fill="none"/>
  <text x="250" y="235" text-anchor="middle" fill="#10b981" font-family="Arial, sans-serif" font-size="12" font-weight="bold">AI FILTER</text>
  
  <!-- Fun floating elements -->
  <circle cx="150" cy="100" r="12" fill="#10b981" opacity="0.4"/>
  <circle cx="650" cy="150" r="16" fill="#059669" opacity="0.3"/>
  <circle cx="100" cy="300" r="10" fill="#10b981" opacity="0.5"/>
  <circle cx="700" cy="350" r="14" fill="#059669" opacity="0.4"/>
  
  <!-- Party streamers -->
  <path d="M0 0 Q100 50 200 0" stroke="#ef4444" stroke-width="3" fill="none" opacity="0.6"/>
  <path d="M0 50 Q150 100 300 50" stroke="#3b82f6" stroke-width="3" fill="none" opacity="0.6"/>
  <path d="M500 0 Q600 50 700 0" stroke="#f59e0b" stroke-width="3" fill="none" opacity="0.6"/>
  <path d="M500 50 Q650 100 800 50" stroke="#8b5cf6" stroke-width="3" fill="none" opacity="0.6"/>
  
  <!-- Celebration emojis -->
  <text x="200" y="120" font-size="24">🎉</text>
  <text x="600" y="180" font-size="20">✨</text>
  <text x="300" y="350" font-size="18">🎊</text>
  <text x="500" y="400" font-size="22">🎈</text>
</svg>
